<svg width="29" height="24" viewBox="0 0 29 24" fill="none" xmlns="http://www.w3.org/2000/svg">
<path d="M7.43932 0L0.5 12.0001L7.43932 24H12.4902V15.554H9.4377V12.0658H12.4902V9.49912C12.4463 8.88257 12.5334 8.26368 12.7456 7.68307C12.9578 7.10245 13.2904 6.57322 13.7217 6.12998C14.1529 5.68674 14.6731 5.33945 15.248 5.11102C15.8229 4.88259 16.4397 4.77811 17.0578 4.80439C17.9695 4.81552 18.8793 4.8889 19.7809 5.02385V8.00737H18.2437C17.9838 7.97373 17.7196 7.9986 17.4705 8.08021C17.2215 8.16181 16.9938 8.29805 16.8043 8.47896C16.6148 8.65986 16.4682 8.88083 16.3753 9.12568C16.2824 9.37053 16.2455 9.63305 16.2673 9.89399V12.0878H19.6272L19.1002 15.5759H16.2673V24.022H21.3181L28.2575 12.022L21.3181 0.0219593L7.43932 0Z" fill="#090A0E"/>
</svg>
