<svg width="32" height="28" viewBox="0 0 32 28" fill="none" xmlns="http://www.w3.org/2000/svg">
<path d="M24 0H8.00001L0 14.0098L8.00001 28H24L32 14.0098L24 0ZM8.92978 6.80922H23.0509C23.3578 6.81386 23.6607 6.88039 23.9419 7.00489L23.7482 7.14186L17.4334 14.3815C17.2517 14.5865 17.0293 14.7505 16.7806 14.8627C16.532 14.975 16.2627 15.033 15.9903 15.033C15.718 15.033 15.4487 14.975 15.2 14.8627C14.9513 14.7505 14.7289 14.5865 14.5472 14.3815L8.11623 7.02446C8.39193 6.88177 8.69747 6.80796 9.00725 6.80922H8.92978ZM23.0509 21.1908H8.92978C8.34926 21.1908 7.79252 20.9578 7.38203 20.5432C6.97154 20.1285 6.74091 19.5661 6.74091 18.9797V9.02027C6.73932 8.61771 6.85373 8.22339 7.0702 7.88539L13.5012 15.2621C13.8139 15.6133 14.1962 15.8941 14.6234 16.0863C15.0506 16.2785 15.513 16.3776 15.9806 16.3774C16.4454 16.3773 16.9048 16.2779 17.3288 16.0857C17.7528 15.8935 18.1318 15.6128 18.4407 15.2621L24.7555 8.02236C24.8117 7.95838 24.8575 7.88572 24.891 7.80713C25.1076 8.15952 25.2218 8.56634 25.2203 8.98113V18.9406C25.236 19.5186 25.025 20.0794 24.6331 20.5009C24.2412 20.9224 23.7003 21.1703 23.1283 21.1908H23.0509Z" fill="#FFAD36"/>
</svg>
