<svg width="29" height="24" viewBox="0 0 29 24" fill="none" xmlns="http://www.w3.org/2000/svg">
<path d="M18.2551 7.50281C18.0338 7.50281 17.8216 7.59057 17.6651 7.7469C17.5086 7.90324 17.4207 8.11523 17.4207 8.33632C17.4207 8.55742 17.5086 8.76954 17.6651 8.92588C17.8216 9.08221 18.0338 9.16997 18.2551 9.16997C18.4765 9.16997 18.6887 9.08221 18.8452 8.92588C19.0017 8.76954 19.0896 8.55742 19.0896 8.33632C19.0896 8.11523 19.0017 7.90324 18.8452 7.7469C18.6887 7.59057 18.4765 7.50281 18.2551 7.50281Z" fill="#090A0E"/>
<path d="M14.5659 8.55579C13.8753 8.55579 13.2002 8.76032 12.626 9.1436C12.0518 9.52688 11.6043 10.0716 11.34 10.709C11.0757 11.3464 11.0066 12.0478 11.1413 12.7244C11.276 13.4011 11.6086 14.0225 12.0969 14.5104C12.5852 14.9982 13.2074 15.3303 13.8847 15.4649C14.562 15.5995 15.264 15.5305 15.9021 15.2665C16.5401 15.0025 17.0854 14.5554 17.469 13.9817C17.8527 13.4081 18.0575 12.7337 18.0575 12.0438C18.0575 11.1187 17.6896 10.2316 17.0348 9.57743C16.38 8.92328 15.4919 8.55579 14.5659 8.55579ZM14.5659 14.2815C14.1315 14.2815 13.707 14.1529 13.3458 13.9118C12.9847 13.6708 12.7032 13.3281 12.537 12.9273C12.3708 12.5264 12.3273 12.0854 12.4121 11.6598C12.4968 11.2343 12.706 10.8433 13.0131 10.5365C13.3202 10.2297 13.7114 10.0208 14.1374 9.93614C14.5634 9.85149 15.005 9.89489 15.4063 10.0609C15.8075 10.227 16.1505 10.5082 16.3918 10.869C16.6331 11.2298 16.7619 11.6539 16.7619 12.0877C16.7619 12.6696 16.5305 13.2275 16.1186 13.639C15.7068 14.0504 15.1483 14.2815 14.5659 14.2815Z" fill="#090A0E"/>
<path d="M7.58258 0L0.643188 12.0001L7.58258 24H21.4394L28.3788 12.0001L21.4394 0H7.58258ZM20.2535 14.8739C20.2564 15.2579 20.1829 15.6385 20.0372 15.9938C19.8914 16.3492 19.6764 16.6721 19.4046 16.9436C19.1328 17.2151 18.8097 17.4299 18.454 17.5754C18.0983 17.721 17.7172 17.7946 17.3329 17.7917H11.6891C11.3037 17.7946 10.9215 17.7212 10.5646 17.5758C10.2077 17.4305 9.88318 17.216 9.60964 16.9448C9.3361 16.6736 9.11898 16.351 8.97083 15.9956C8.82268 15.6402 8.74645 15.2589 8.74646 14.8739V9.23588C8.74646 8.45623 9.05644 7.70854 9.6083 7.15725C10.1602 6.60595 10.9087 6.29615 11.6891 6.29615H17.3109C17.6963 6.29614 18.0779 6.37243 18.4337 6.52043C18.7895 6.66843 19.1124 6.88532 19.3839 7.15859C19.6554 7.43185 19.8701 7.75608 20.0156 8.11261C20.1611 8.46914 20.2344 8.85088 20.2315 9.23588L20.2535 14.8739Z" fill="#090A0E"/>
</svg>
