<svg width="121" height="24" viewBox="0 0 121 24" fill="none" xmlns="http://www.w3.org/2000/svg">
<g clip-path="url(#clip0_16_225)">
<path d="M64.2551 7.50281C64.0338 7.50281 63.8216 7.59057 63.6651 7.7469C63.5086 7.90324 63.4207 8.11523 63.4207 8.33632C63.4207 8.55742 63.5086 8.76954 63.6651 8.92588C63.8216 9.08221 64.0338 9.16997 64.2551 9.16997C64.4765 9.16997 64.6887 9.08221 64.8452 8.92588C65.0017 8.76954 65.0896 8.55742 65.0896 8.33632C65.0896 8.11523 65.0017 7.90324 64.8452 7.7469C64.6887 7.59057 64.4765 7.50281 64.2551 7.50281Z" fill="#090A0E"/>
<path d="M60.5659 8.55579C59.8753 8.55579 59.2002 8.76032 58.626 9.1436C58.0518 9.52688 57.6043 10.0716 57.34 10.709C57.0757 11.3464 57.0066 12.0478 57.1413 12.7244C57.276 13.4011 57.6086 14.0225 58.0969 14.5104C58.5852 14.9982 59.2074 15.3303 59.8847 15.4649C60.562 15.5995 61.264 15.5305 61.9021 15.2665C62.5401 15.0025 63.0854 14.5554 63.469 13.9817C63.8527 13.4081 64.0575 12.7337 64.0575 12.0438C64.0575 11.1187 63.6896 10.2316 63.0348 9.57743C62.38 8.92328 61.4919 8.55579 60.5659 8.55579ZM60.5659 14.2815C60.1315 14.2815 59.707 14.1529 59.3458 13.9118C58.9847 13.6708 58.7032 13.3281 58.537 12.9273C58.3708 12.5264 58.3273 12.0854 58.4121 11.6598C58.4968 11.2343 58.706 10.8433 59.0131 10.5365C59.3202 10.2297 59.7114 10.0208 60.1374 9.93614C60.5634 9.85149 61.005 9.89489 61.4063 10.0609C61.8075 10.227 62.1505 10.5082 62.3918 10.869C62.6331 11.2298 62.7619 11.6539 62.7619 12.0877C62.7619 12.6696 62.5305 13.2275 62.1186 13.639C61.7068 14.0504 61.1483 14.2815 60.5659 14.2815Z" fill="#090A0E"/>
<path d="M53.5826 0L46.6432 12.0001L53.5826 24H67.4394L74.3788 12.0001L67.4394 0H53.5826ZM66.2535 14.8739C66.2564 15.2579 66.1829 15.6385 66.0372 15.9938C65.8914 16.3492 65.6764 16.6721 65.4046 16.9436C65.1328 17.2151 64.8097 17.4299 64.454 17.5754C64.0983 17.721 63.7172 17.7946 63.3329 17.7917H57.6891C57.3037 17.7946 56.9215 17.7212 56.5646 17.5758C56.2077 17.4305 55.8832 17.216 55.6096 16.9448C55.3361 16.6736 55.119 16.351 54.9708 15.9956C54.8227 15.6402 54.7464 15.2589 54.7465 14.8739V9.23588C54.7465 8.45623 55.0564 7.70854 55.6083 7.15725C56.1602 6.60595 56.9087 6.29615 57.6891 6.29615H63.3109C63.6963 6.29614 64.0779 6.37243 64.4337 6.52043C64.7895 6.66843 65.1124 6.88532 65.3839 7.15859C65.6554 7.43185 65.8701 7.75608 66.0156 8.11261C66.1611 8.46914 66.2344 8.85088 66.2315 9.23588L66.2535 14.8739Z" fill="#090A0E"/>
<path d="M6.93932 0L0 12.0001L6.93932 24H11.9902V15.554H8.9377V12.0658H11.9902V9.49912C11.9463 8.88257 12.0334 8.26368 12.2456 7.68307C12.4578 7.10245 12.7904 6.57322 13.2217 6.12998C13.6529 5.68674 14.1731 5.33945 14.748 5.11102C15.3229 4.88259 15.9397 4.77811 16.5578 4.80439C17.4695 4.81552 18.3793 4.8889 19.2809 5.02385V8.00737H17.7437C17.4838 7.97373 17.2196 7.9986 16.9705 8.08021C16.7215 8.16181 16.4938 8.29805 16.3043 8.47896C16.1148 8.65986 15.9682 8.88083 15.8753 9.12568C15.7824 9.37053 15.7455 9.63305 15.7673 9.89399V12.0878H19.1272L18.6002 15.5759H15.7673V24.022H20.8181L27.7575 12.022L20.8181 0.0219593L6.93932 0Z" fill="#090A0E"/>
<path d="M109.098 11.978L105.913 10.245C105.782 10.245 105.343 10.2449 105.343 10.4204V13.8866C105.343 14.0402 105.782 14.128 105.913 14.0622L109.251 12.4168C109.427 12.2633 109.229 12.0658 109.098 11.978Z" fill="#090A0E"/>
<path d="M114.083 0H100.204L93.2644 12.0001L100.204 24H114.083L121 12.0001L114.083 0ZM113.599 13.8867C113.599 14.6547 113.294 15.3913 112.75 15.9344C112.207 16.4775 111.469 16.7825 110.701 16.7825H103.278C102.509 16.7825 101.772 16.4775 101.228 15.9344C100.685 15.3913 100.379 14.6547 100.379 13.8867V10.4424C100.377 10.0603 100.449 9.68147 100.594 9.3276C100.738 8.97373 100.951 8.6519 101.221 8.38067C101.49 8.10945 101.811 7.8941 102.164 7.7472C102.517 7.60031 102.896 7.52465 103.278 7.52466H110.701C111.083 7.52465 111.462 7.60031 111.815 7.7472C112.168 7.8941 112.489 8.10945 112.758 8.38067C113.028 8.6519 113.241 8.97373 113.385 9.3276C113.529 9.68147 113.602 10.0603 113.599 10.4424V13.8867Z" fill="#090A0E"/>
</g>
<defs>
<clipPath id="clip0_16_225">
<rect width="121" height="24" fill="white"/>
</clipPath>
</defs>
</svg>
