<svg width="1200" height="630" viewBox="0 0 1200 630" fill="none" xmlns="http://www.w3.org/2000/svg">
<g clip-path="url(#clip0_691_260)">
<rect width="1200" height="630" fill="#FFAD36"/>
<path d="M581.041 213H340.154L311.273 277.658H408.182L418.898 253.789L373.02 242.581H470.147L444.254 298.632L364.932 314.481L359.753 326.696L424.91 341.945L404.913 387.26H358.792L371.367 358.763H275.15L258.614 396.071L274.689 407.189L250 416H490.657L523.96 340.811L470.622 324.107L538.407 308.603L581.041 213Z" fill="white"/>
<path d="M627.406 362.167L578.221 362.728L614.177 284.849L595.962 280.271L607.73 298.798L622.099 267.916H621.663H613.524H582.682L536.766 366.464L543.303 371.36L532.805 375.198L622.138 374.191L627.406 362.167Z" fill="#090A0E"/>
<path d="M764.668 343.768H725.046L717.188 361.16L678.207 361.606L693.769 326.402H735.352L741.133 313.945H699.127L713.778 284.747L695.563 280.271H755.119L746.44 299.767H785.64L796.241 275.694L791.318 267.916H682.065L636.264 366.464L646.378 373.923L752.042 372.737L764.668 343.768Z" fill="#090A0E"/>
<path d="M904.725 326.301L928.785 275.592L923.863 267.699H801.65L809.265 279.455L768.924 366.158L777.602 372.457L806.406 372.138L826.326 326.096H837.35L857.283 371.565L896.47 371.131L876.344 326.211L904.725 326.301ZM831.787 313.627L846.323 284.53L828.121 280.169H887.779L870.986 313.627H831.787Z" fill="#090A0E"/>
<path d="M669.451 295.036H688.038V267.916H669.003L676.604 279.672L669.451 295.036Z" fill="#090A0E"/>
<path d="M505.04 225.075H554.558L525.383 290.497" fill="#090A0E"/>
<path d="M932.797 251.634H590.27L589.142 254.056H931.438L948.423 281.623L901.815 386.1H527.613L526.485 388.523H903.43L951 281.189L932.797 251.634Z" fill="white"/>
<path d="M1199.5 630.5L1008.5 630.5L1199.5 213L1199.5 630.5Z" fill="#090A0E"/>
<path d="M2.00004 0L193 4.86543e-05L1.99993 417.5L2.00004 0Z" fill="#090A0E"/>
</g>
<defs>
<clipPath id="clip0_691_260">
<rect width="1200" height="630" fill="white"/>
</clipPath>
</defs>
</svg>
