<svg width="21" height="20" viewBox="0 0 21 20" fill="none" xmlns="http://www.w3.org/2000/svg">
<path d="M21 11.8753V17.8753C21 18.2732 20.842 18.6547 20.5607 18.936C20.2794 19.2173 19.8978 19.3753 19.5 19.3753H1.5C1.10218 19.3753 0.720644 19.2173 0.43934 18.936C0.158035 18.6547 0 18.2732 0 17.8753V11.8753C0 11.4775 0.158035 11.096 0.43934 10.8147C0.720644 10.5334 1.10218 10.3753 1.5 10.3753H6C6.19891 10.3753 6.38968 10.4544 6.53033 10.595C6.67098 10.7357 6.75 10.9264 6.75 11.1253C6.75 11.3243 6.67098 11.515 6.53033 11.6557C6.38968 11.7963 6.19891 11.8753 6 11.8753H1.5V17.8753H19.5V11.8753H15C14.8011 11.8753 14.6103 11.7963 14.4697 11.6557C14.329 11.515 14.25 11.3243 14.25 11.1253C14.25 10.9264 14.329 10.7357 14.4697 10.595C14.6103 10.4544 14.8011 10.3753 15 10.3753H19.5C19.8978 10.3753 20.2794 10.5334 20.5607 10.8147C20.842 11.096 21 11.4775 21 11.8753ZM6.53063 6.40597L9.75 3.18566V11.1253C9.75 11.3243 9.82902 11.515 9.96967 11.6557C10.1103 11.7963 10.3011 11.8753 10.5 11.8753C10.6989 11.8753 10.8897 11.7963 11.0303 11.6557C11.171 11.515 11.25 11.3243 11.25 11.1253V3.18566L14.4694 6.40597C14.6101 6.5467 14.801 6.62576 15 6.62576C15.199 6.62576 15.3899 6.5467 15.5306 6.40597C15.6714 6.26524 15.7504 6.07437 15.7504 5.87535C15.7504 5.67632 15.6714 5.48545 15.5306 5.34472L11.0306 0.844721C10.961 0.774989 10.8783 0.719669 10.7872 0.681926C10.6962 0.644183 10.5986 0.624756 10.5 0.624756C10.4014 0.624756 10.3038 0.644183 10.2128 0.681926C10.1217 0.719669 10.039 0.774989 9.96937 0.844721L5.46937 5.34472C5.32864 5.48545 5.24958 5.67632 5.24958 5.87535C5.24958 6.07437 5.32864 6.26524 5.46938 6.40597C5.61011 6.5467 5.80098 6.62576 6 6.62576C6.19902 6.62576 6.38989 6.5467 6.53063 6.40597ZM17.25 14.8753C17.25 14.6528 17.184 14.4353 17.0604 14.2503C16.9368 14.0653 16.7611 13.9211 16.5555 13.836C16.35 13.7508 16.1238 13.7286 15.9055 13.772C15.6873 13.8154 15.4868 13.9225 15.3295 14.0799C15.1722 14.2372 15.065 14.4376 15.0216 14.6559C14.9782 14.8741 15.0005 15.1003 15.0856 15.3059C15.1708 15.5114 15.315 15.6871 15.5 15.8107C15.685 15.9344 15.9025 16.0003 16.125 16.0003C16.4234 16.0003 16.7095 15.8818 16.9205 15.6708C17.1315 15.4599 17.25 15.1737 17.25 14.8753Z" fill="#B5B5B6"/>
</svg>
