<svg width="28" height="24" viewBox="0 0 28 24" fill="none" xmlns="http://www.w3.org/2000/svg">
<path d="M16.0977 11.978L12.9134 10.245C12.7817 10.245 12.3425 10.2449 12.3425 10.4204V13.8866C12.3425 14.0402 12.7817 14.128 12.9134 14.0622L16.2514 12.4168C16.4271 12.2633 16.2294 12.0658 16.0977 11.978Z" fill="#090A0E"/>
<path d="M21.0825 0H7.20373L0.264404 12.0001L7.20373 24H21.0825L27.9999 12.0001L21.0825 0ZM20.5994 13.8867C20.5994 14.6547 20.294 15.3913 19.7503 15.9344C19.2067 16.4775 18.4694 16.7825 17.7006 16.7825H10.2782C9.5094 16.7825 8.7721 16.4775 8.22848 15.9344C7.68487 15.3913 7.37945 14.6547 7.37945 13.8867V10.4424C7.37655 10.0603 7.44939 9.68147 7.59377 9.3276C7.73814 8.97373 7.95118 8.6519 8.22064 8.38067C8.4901 8.10945 8.81064 7.8941 9.16377 7.7472C9.5169 7.60031 9.89567 7.52465 10.2782 7.52466H17.7006C18.0832 7.52465 18.4619 7.60031 18.8151 7.7472C19.1682 7.8941 19.4887 8.10945 19.7582 8.38067C20.0277 8.6519 20.2407 8.97373 20.3851 9.3276C20.5294 9.68147 20.6023 10.0603 20.5994 10.4424V13.8867Z" fill="#090A0E"/>
</svg>
