<svg width="32" height="28" viewBox="0 0 32 28" fill="none" xmlns="http://www.w3.org/2000/svg">
<path d="M23.9807 0H7.98063L0 14.0098L8.00001 28H24L32 14.0098L23.9807 0ZM23.477 18.9797C23.2052 19.5445 22.8028 20.035 22.3038 20.4096C21.8048 20.7842 21.224 21.032 20.6102 21.1321C19.5317 21.2481 18.4421 21.0725 17.4528 20.6233C16.5115 20.293 15.6087 19.8599 14.7603 19.3319C13.0597 18.2659 11.5796 16.8772 10.4019 15.2425C10.0533 14.7598 9.72395 14.2511 9.41402 13.7163C8.98908 13.0224 8.66304 12.2715 8.4455 11.4857C8.36753 11.1523 8.32852 10.8108 8.32928 10.4682C8.30022 9.87028 8.40739 9.27359 8.64247 8.72406C8.87754 8.17452 9.23426 7.68679 9.68524 7.29839C9.95129 7.07676 10.2711 6.93089 10.6116 6.87585C10.9521 6.82082 11.3011 6.85861 11.6223 6.98532C12.2277 7.5059 12.6828 8.1819 12.9395 8.942C13.2446 9.48966 13.3859 10.115 13.3463 10.7421C13.1773 11.3213 12.8638 11.8468 12.4359 12.2683C12.3169 12.3742 12.2411 12.5209 12.2232 12.68C12.2053 12.8391 12.2466 12.9992 12.339 13.1293C13.4952 15.1547 15.2883 16.7318 17.4334 17.6101C17.5546 17.6763 17.6951 17.697 17.8299 17.6683C17.9647 17.6397 18.0851 17.5635 18.1695 17.4535C18.5376 16.9644 18.925 16.0447 19.5061 15.8099C19.8972 15.7142 20.3048 15.7103 20.6977 15.7985C21.0906 15.8867 21.4582 16.0646 21.7724 16.3187C22.3729 16.6709 23.3801 17.1209 23.5351 17.884C23.6318 18.2462 23.6114 18.6301 23.477 18.9797Z" fill="#FFAD36"/>
</svg>
