<svg width="106" height="30" viewBox="0 0 106 30" fill="none" xmlns="http://www.w3.org/2000/svg">
<path d="M50.0576 0H13.6323L9.26526 9.5553H23.9191L25.5396 6.02789L18.6022 4.37159H33.289L29.3736 12.655L17.3791 14.9972L16.5961 16.8023L26.4486 19.056L23.4248 25.7528H16.4507L18.3522 21.5414H3.80302L1.30256 27.0548L3.73324 28.6979L0 30H36.3904L41.4262 18.8883L33.3607 16.4198L43.6107 14.1285L50.0576 0Z" fill="#090A0E"/>
<path d="M57.0686 22.0445L49.6311 22.1274L55.0682 10.6181L52.3138 9.94161L54.0932 12.6795L56.2661 8.11572H56.2002H54.9693H50.3057L43.3626 22.6795L44.3511 23.4031L42.7636 23.9703L56.2719 23.8214L57.0686 22.0445Z" fill="#090A0E"/>
<path d="M77.8243 19.3254H71.8329L70.6447 21.8956L64.7502 21.9616L67.1033 16.759H73.3913L74.2655 14.9181H67.9136L70.1291 10.603L67.3747 9.94161H76.3802L75.068 12.8227H80.9954L82.5984 9.26515L81.8541 8.11572H65.3336L58.408 22.6795L59.9373 23.7818L75.915 23.6066L77.8243 19.3254Z" fill="#090A0E"/>
<path d="M99.0026 16.7438L102.641 9.24989L101.897 8.0835H83.4164L84.5678 9.82084L78.4678 22.6341L79.7801 23.5649L84.1355 23.5178L87.1477 16.7136H88.8147L91.8288 23.4331L97.7543 23.369L94.7111 16.7306L99.0026 16.7438ZM87.9734 14.8708L90.1715 10.5708L87.4191 9.92635H96.4401L93.9009 14.8708H87.9734Z" fill="#090A0E"/>
<path d="M63.4263 12.1236H66.2369V8.11572H63.3585L64.5079 9.85305L63.4263 12.1236Z" fill="#090A0E"/>
<path d="M38.5652 1.78467H46.053L41.6413 11.453" fill="#FFAD36"/>
<path d="M103.248 5.70947H51.4532L51.2826 6.06749H103.042L105.61 10.1414L98.5626 25.5813H41.9786L41.808 25.9394H98.8068L106 10.0773L103.248 5.70947Z" fill="#090A0E"/>
</svg>
