<svg width="277" height="81" viewBox="0 0 277 81" fill="none" xmlns="http://www.w3.org/2000/svg">
<path d="M130.811 0H35.6241L24.212 25.686H62.5056L66.7402 16.2038L48.6115 11.7515H86.9911L76.7593 34.0184L45.4153 40.3146L43.3689 45.1671L69.1158 51.2252L61.2139 69.2272H42.989L47.9581 57.9063H9.93808L3.40385 72.7273L9.75574 77.1442L0 80.6443H95.0956L108.255 50.7744L87.1786 44.1389L113.964 37.9795L130.811 0Z" fill="white"/>
<path d="M149.132 59.2586L129.697 59.4815L143.905 28.5427L136.707 26.7243L141.357 34.0842L147.035 21.816H146.863H143.646H131.459L113.315 60.9656L115.899 62.9107L111.75 64.4353L147.05 64.0352L149.132 59.2586Z" fill="#FFAD36"/>
<path d="M203.371 51.9494H187.714L184.609 58.8584L169.206 59.0357L175.355 45.0505H191.787L194.071 40.1017H177.472L183.262 28.5022L176.064 26.7243H199.597L196.168 34.4691H211.658L215.847 24.9059L213.902 21.816H170.73L152.632 60.9656L156.629 63.9288L198.382 63.4577L203.371 51.9494Z" fill="#FFAD36"/>
<path d="M258.714 45.0101L268.222 24.8654L266.277 21.73H217.984L220.993 26.4002L205.053 60.8441L208.482 63.3464L219.864 63.2197L227.735 44.929H232.091L239.968 62.9918L255.452 62.8195L247.5 44.9746L258.714 45.0101ZM229.893 39.9751L235.637 28.4162L228.444 26.6838H252.018L245.383 39.9751H229.893Z" fill="#FFAD36"/>
<path d="M165.746 32.5899H173.091V21.816H165.569L168.573 26.4862L165.746 32.5899Z" fill="#FFAD36"/>
<path d="M100.779 4.79675H120.346L108.817 30.7867" fill="#FFAD36"/>
<path d="M269.807 15.3477H134.458L134.012 16.3101H269.27L275.982 27.2612L257.564 68.7661H109.699L109.253 69.7285H258.203L277 27.089L269.807 15.3477Z" fill="white"/>
</svg>
